<?xml version="1.0" encoding="UTF-8" standalone="no"?>
<!-- Created with Inkscape (http://www.inkscape.org/) -->

<svg
   xmlns:dc="http://purl.org/dc/elements/1.1/"
   xmlns:cc="http://creativecommons.org/ns#"
   xmlns:rdf="http://www.w3.org/1999/02/22-rdf-syntax-ns#"
   xmlns:svg="http://www.w3.org/2000/svg"
   xmlns="http://www.w3.org/2000/svg"
   xmlns:sodipodi="http://sodipodi.sourceforge.net/DTD/sodipodi-0.dtd"
   xmlns:inkscape="http://www.inkscape.org/namespaces/inkscape"
   width="64px"
   height="64px"
   id="svg3256"
   version="1.1"
   inkscape:version="0.48.3.1 r9886"
   sodipodi:docname="tbot_config.svg">
  <defs
     id="defs3258">
    <filter
       id="filter4556"
       style="color-interpolation-filters:sRGB;"
       inkscape:label="Drop Shadow">
      <feFlood
         id="feFlood4558"
         flood-opacity="0.5"
         flood-color="rgb(0,0,0)"
         result="flood" />
      <feComposite
         id="feComposite4560"
         in2="SourceGraphic"
         in="flood"
         operator="in"
         result="composite1" />
      <feGaussianBlur
         id="feGaussianBlur4562"
         in="composite"
         stdDeviation="1"
         result="blur" />
      <feOffset
         id="feOffset4564"
         dx="1"
         dy="1"
         result="offset" />
      <feComposite
         id="feComposite4566"
         in2="offset"
         in="SourceGraphic"
         operator="over"
         result="composite2" />
    </filter>
    <clipPath
       clipPathUnits="userSpaceOnUse"
       id="clipPath4628">
      <path
         style="opacity:0.5;fill:#ffff00;fill-rule:evenodd;stroke:#000000;stroke-width:2;stroke-linecap:butt;stroke-linejoin:round;stroke-miterlimit:4;stroke-opacity:1"
         d="M -7.3638874,58.106657 C -5.2197605,50.104666 3.0052939,45.355928 11.007285,47.500055 c 5.176381,1.387007 9.219595,5.43022 10.606602,10.606601 L 7.125,61.988942 z"
         id="path4630"
         inkscape:connector-curvature="0" />
    </clipPath>
    <clipPath
       clipPathUnits="userSpaceOnUse"
       id="clipPath4628-0">
      <path
         style="opacity:0.5;fill:#ffff00;fill-rule:evenodd;stroke:#000000;stroke-width:2;stroke-linecap:butt;stroke-linejoin:round;stroke-miterlimit:4;stroke-opacity:1"
         d="M -7.3638874,58.106657 C -5.2197605,50.104666 3.0052939,45.355928 11.007285,47.500055 c 5.176381,1.387007 9.219595,5.43022 10.606602,10.606601 L 7.125,61.988942 z"
         id="path4630-6"
         inkscape:connector-curvature="0" />
    </clipPath>
    <filter
       color-interpolation-filters="sRGB"
       id="filter5875"
       inkscape:label="Drop Shadow">
      <feFlood
         id="feFlood5877"
         flood-opacity="0.5"
         flood-color="rgb(0,0,0)"
         result="flood" />
      <feComposite
         id="feComposite5879"
         in2="SourceGraphic"
         in="flood"
         operator="in"
         result="composite1" />
      <feGaussianBlur
         id="feGaussianBlur5881"
         stdDeviation="0.5"
         result="blur" />
      <feOffset
         id="feOffset5883"
         dx="1"
         dy="1"
         result="offset" />
      <feComposite
         id="feComposite5885"
         in2="offset"
         in="SourceGraphic"
         operator="over"
         result="composite2" />
    </filter>
    <filter
       color-interpolation-filters="sRGB"
       id="filter5887"
       inkscape:label="Drop Shadow">
      <feFlood
         id="feFlood5889"
         flood-opacity="0.5"
         flood-color="rgb(0,0,0)"
         result="flood" />
      <feComposite
         id="feComposite5891"
         in2="SourceGraphic"
         in="flood"
         operator="in"
         result="composite1" />
      <feGaussianBlur
         id="feGaussianBlur5893"
         stdDeviation="0.5"
         result="blur" />
      <feOffset
         id="feOffset5895"
         dx="1"
         dy="1"
         result="offset" />
      <feComposite
         id="feComposite5897"
         in2="offset"
         in="SourceGraphic"
         operator="over"
         result="composite2" />
    </filter>
    <clipPath
       clipPathUnits="userSpaceOnUse"
       id="clipPath4628-5">
      <path
         style="opacity:0.5;fill:#ffff00;fill-rule:evenodd;stroke:#000000;stroke-width:2;stroke-linecap:butt;stroke-linejoin:round;stroke-miterlimit:4;stroke-opacity:1"
         d="M -7.3638874,58.106657 C -5.2197605,50.104666 3.0052939,45.355928 11.007285,47.500055 c 5.176381,1.387007 9.219595,5.43022 10.606602,10.606601 L 7.125,61.988942 z"
         id="path4630-4"
         inkscape:connector-curvature="0" />
    </clipPath>
    <filter
       color-interpolation-filters="sRGB"
       id="filter5875-8"
       inkscape:label="Drop Shadow">
      <feFlood
         id="feFlood5877-7"
         flood-opacity="0.5"
         flood-color="rgb(0,0,0)"
         result="flood" />
      <feComposite
         id="feComposite5879-2"
         in2="SourceGraphic"
         in="flood"
         operator="in"
         result="composite1" />
      <feGaussianBlur
         id="feGaussianBlur5881-5"
         stdDeviation="0.5"
         result="blur" />
      <feOffset
         id="feOffset5883-7"
         dx="1"
         dy="1"
         result="offset" />
      <feComposite
         id="feComposite5885-0"
         in2="offset"
         in="SourceGraphic"
         operator="over"
         result="composite2" />
    </filter>
  </defs>
  <sodipodi:namedview
     id="base"
     pagecolor="#000000"
     bordercolor="#666666"
     borderopacity="1.0"
     inkscape:pageopacity="0.4627451"
     inkscape:pageshadow="2"
     inkscape:zoom="10.587974"
     inkscape:cx="20.225474"
     inkscape:cy="38.915351"
     inkscape:current-layer="g4045"
     showgrid="false"
     inkscape:document-units="px"
     inkscape:grid-bbox="true"
     showguides="true"
     inkscape:guide-bbox="true"
     inkscape:window-width="1871"
     inkscape:window-height="1176"
     inkscape:window-x="49"
     inkscape:window-y="24"
     inkscape:window-maximized="1">
    <inkscape:grid
       type="xygrid"
       id="grid3357"
       empspacing="5"
       visible="true"
       enabled="true"
       snapvisiblegridlinesonly="true" />
  </sodipodi:namedview>
  <metadata
     id="metadata3261">
    <rdf:RDF>
      <cc:Work
         rdf:about="">
        <dc:format>image/svg+xml</dc:format>
        <dc:type
           rdf:resource="http://purl.org/dc/dcmitype/StillImage" />
        <dc:title></dc:title>
      </cc:Work>
    </rdf:RDF>
  </metadata>
  <g
     id="layer1"
     inkscape:label="Layer 1"
     inkscape:groupmode="layer">
    <g
       id="g6759"
       transform="matrix(0.82419995,0,0,0.82419995,0.01098766,0.1292578)">
      <g
         transform="matrix(-0.295251,0.07911227,-0.07911227,-0.295251,45.487435,28.047128)"
         id="g2895-0-9-5-6"
         style="fill:#60bf56;fill-opacity:1;stroke:#60bf56;stroke-width:0.23999999;stroke-miterlimit:4;stroke-opacity:1;stroke-dasharray:none" />
      <g
         id="g4015">
        <g
           id="g4045"
           transform="matrix(0.96592583,0.25881905,-0.25881905,0.96592583,9.1489481,-6.9380286)">
          <g
             id="g4664"
             transform="translate(5.8704397,8.1247778)">
            <path
               inkscape:connector-curvature="0"
               id="path4660"
               d="M 48.182113,24.617933 C 46.105041,16.86619 35.875568,12.84888 25.378517,15.661558 14.881783,18.474149 8.0311368,27.068062 10.108211,34.819804 12.185199,42.571229 22.415073,46.58877 32.911806,43.776179 43.408859,40.963502 50.259101,32.369356 48.182113,24.617933"
               style="opacity:0.3;fill:none;stroke:#ffffff;stroke-width:1.08030927;stroke-opacity:1" />
            <path
               inkscape:connector-curvature="0"
               d="m 39.10128,37.355408 c -1.234065,0.330667 -2.503075,-0.401727 -2.833826,-1.636112 -0.330754,-1.234383 0.402046,-2.50316 1.636111,-2.833828 1.233746,-0.330582 2.502756,0.401812 2.833507,1.636197 0.330753,1.234385 -0.402045,2.503161 -1.635792,2.833743 m -1.977478,-7.380057 c -1.234066,0.330666 -2.50299,-0.401407 -2.833658,-1.635473 -0.330751,-1.234385 0.401961,-2.503479 1.636026,-2.834147 1.233747,-0.330581 2.502842,0.402131 2.833595,1.636515 0.330666,1.234067 -0.402216,2.502524 -1.635963,2.833105 m -5.402563,9.357533 c -1.234384,0.330751 -2.502757,-0.401814 -2.833509,-1.636198 -0.330752,-1.234384 0.401408,-2.50299 1.635793,-2.833742 1.234384,-0.330752 2.502437,0.401898 2.83319,1.636282 0.330752,1.234384 -0.40109,2.502906 -1.635474,2.833658 m -1.97748,-7.380057 c -1.234384,0.330752 -2.502672,-0.401494 -2.833338,-1.635559 -0.330752,-1.234384 0.401322,-2.503309 1.635707,-2.834061 1.234384,-0.330753 2.502522,0.402217 2.833275,1.636601 0.330667,1.234065 -0.40126,2.502267 -1.635644,2.833019 m -5.40194,9.357368 c -1.234384,0.330752 -2.503394,-0.401641 -2.834147,-1.636026 -0.330752,-1.234383 0.402046,-2.50316 1.636431,-2.833914 1.234066,-0.330665 2.502437,0.401898 2.83319,1.636284 0.330752,1.234383 -0.401408,2.502989 -1.635474,2.833656 m -1.97748,-7.380058 c -1.234384,0.330752 -2.503309,-0.401322 -2.833975,-1.635387 -0.330753,-1.234385 0.401959,-2.503481 1.636344,-2.834232 1.234066,-0.330668 2.502523,0.402216 2.833276,1.6366 0.330666,1.234066 -0.401579,2.502353 -1.635645,2.833019 M 36.782351,19.762559 c 0.330581,1.233746 -0.402301,2.502203 -1.636048,2.832786 -1.234065,0.330666 -2.50299,-0.401409 -2.833571,-1.635155 -0.330667,-1.234066 0.402046,-2.503161 1.636111,-2.833828 1.233747,-0.330581 2.502842,0.402131 2.833508,1.636197 m -7.380372,1.977565 c 0.330581,1.233747 -0.401345,2.501947 -1.635729,2.832699 -1.234384,0.330752 -2.502672,-0.401493 -2.833253,-1.635239 -0.330666,-1.234065 0.401408,-2.50299 1.635792,-2.833742 1.234384,-0.330752 2.502524,0.402217 2.83319,1.636282 m -7.379441,1.977316 c 0.330581,1.233746 -0.401664,2.502032 -1.636049,2.832785 -1.234065,0.330666 -2.50299,-0.401408 -2.833571,-1.635155 -0.330667,-1.234064 0.402046,-2.50316 1.636111,-2.833826 1.234384,-0.330753 2.502842,0.402131 2.833509,1.636196"
               style="opacity:0.3;fill:none;stroke:#ffffff;stroke-width:0.65536845;stroke-miterlimit:4;stroke-opacity:1;stroke-dasharray:none"
               id="path2933-7-0-5-3-2" />
            <path
               inkscape:connector-curvature="0"
               d="m 22.022746,23.717749 c 0.330582,1.233747 -0.401664,2.502033 -1.636048,2.832786 -1.234065,0.330666 -2.50299,-0.401408 -2.833571,-1.635155 -0.330668,-1.234065 0.402045,-2.503161 1.636111,-2.833827 1.234384,-0.330753 2.502842,0.402131 2.833508,1.636196"
               id="path2901-1-2-6-9"
               style="fill:#dfd8c8;fill-opacity:1;stroke:none" />
            <path
               inkscape:connector-curvature="0"
               d="m 29.402188,21.740433 c 0.330581,1.233747 -0.401346,2.501948 -1.63573,2.8327 -1.234384,0.330753 -2.502671,-0.401493 -2.833253,-1.63524 -0.330666,-1.234065 0.401409,-2.50299 1.635793,-2.833742 1.234384,-0.330753 2.502523,0.402217 2.83319,1.636282"
               id="path2905-6-8-7-7"
               style="fill:#dfd8c8;fill-opacity:1;stroke:none" />
            <path
               inkscape:connector-curvature="0"
               d="m 36.78256,19.762868 c 0.330582,1.233746 -0.402301,2.502203 -1.636048,2.832786 -1.234065,0.330666 -2.50299,-0.401409 -2.833571,-1.635156 -0.330668,-1.234065 0.402045,-2.50316 1.636111,-2.833827 1.233746,-0.330581 2.502842,0.402131 2.833508,1.636197"
               id="path2909-1-6-6-1"
               style="fill:#dfd8c8;fill-opacity:1;stroke:none" />
            <path
               inkscape:connector-curvature="0"
               d="m 22.364548,33.930447 c -1.234384,0.330752 -2.503309,-0.401322 -2.833976,-1.635387 -0.330753,-1.234385 0.40196,-2.50348 1.636345,-2.834232 1.234065,-0.330668 2.502522,0.402216 2.833275,1.6366 0.330667,1.234066 -0.401579,2.502353 -1.635644,2.833019"
               id="path2913-6-7-0-5"
               style="fill:#dfd8c8;fill-opacity:1;stroke:none" />
            <path
               inkscape:connector-curvature="0"
               d="m 24.342028,41.310505 c -1.234384,0.330751 -2.503394,-0.401642 -2.834147,-1.636026 -0.330752,-1.234384 0.402046,-2.503161 1.636431,-2.833914 1.234065,-0.330666 2.502437,0.401898 2.83319,1.636283 0.330751,1.234384 -0.401409,2.50299 -1.635474,2.833657"
               id="path2917-8-4-5-0"
               style="fill:#dfd8c8;fill-opacity:1;stroke:none" />
            <path
               inkscape:connector-curvature="0"
               d="m 29.743967,31.953137 c -1.234384,0.330752 -2.502671,-0.401494 -2.833338,-1.635559 -0.330751,-1.234384 0.401322,-2.503309 1.635708,-2.834061 1.234384,-0.330753 2.502522,0.402217 2.833275,1.636601 0.330666,1.234065 -0.401261,2.502267 -1.635645,2.833019"
               id="path2921-8-9-0-4"
               style="fill:#dfd8c8;fill-opacity:1;stroke:none" />
            <path
               inkscape:connector-curvature="0"
               d="m 31.721448,39.333193 c -1.234384,0.330752 -2.502757,-0.401812 -2.833509,-1.636197 -0.330753,-1.234385 0.401407,-2.50299 1.635792,-2.833743 1.234384,-0.330751 2.502437,0.401898 2.83319,1.636283 0.330752,1.234384 -0.401089,2.502905 -1.635473,2.833657"
               id="path2925-0-2-2-5"
               style="fill:#dfd8c8;fill-opacity:1;stroke:none" />
            <path
               inkscape:connector-curvature="0"
               d="m 37.124011,29.975661 c -1.234066,0.330666 -2.502991,-0.401407 -2.833657,-1.635474 -0.330753,-1.234384 0.40196,-2.503479 1.636026,-2.834146 1.233746,-0.330582 2.502842,0.402131 2.833594,1.636515 0.330666,1.234066 -0.402217,2.502524 -1.635963,2.833105"
               id="path2929-2-4-0-4"
               style="fill:#dfd8c8;fill-opacity:1;stroke:none" />
            <path
               inkscape:connector-curvature="0"
               d="m 39.10149,37.355717 c -1.234066,0.330667 -2.503076,-0.401727 -2.833828,-1.636111 -0.330753,-1.234384 0.402046,-2.503161 1.636111,-2.833828 1.233747,-0.330582 2.502756,0.401812 2.833509,1.636197 0.330752,1.234384 -0.402046,2.503161 -1.635792,2.833742"
               id="path2933-7-0-5-3"
               style="fill:#dfd8c8;fill-opacity:1;stroke:none" />
            <path
               inkscape:connector-curvature="0"
               id="path2897-8-9-3-3-1"
               d="m 65.714519,19.920139 c 0.195631,0.730104 -0.05279,1.418178 -0.05279,1.418178 0,0 -3.212877,10.252545 -13.971917,7.971581 -0.155225,1.181364 -0.451937,2.35141 -0.879451,3.497704 l -0.02725,0.03738 c -0.15184,0.401692 -0.318235,0.800106 -0.501733,1.195923 2.643709,0.305244 5.189894,1.6793 5.782855,3.892262 1.217289,4.542981 -9.706384,28.067891 -14.093951,22.877366 -2.754941,-3.260585 4.65797,-13.232785 3.955784,-15.85338 -0.337248,-1.258626 -1.220207,-2.111896 -1.868997,-3.162949 -2.841717,2.275546 -6.342163,4.080453 -10.298892,5.140655 -4.692574,1.257372 -9.354199,1.288052 -13.462813,0.314184 -1.723248,3.091694 -4.238183,6.85601 -6.546194,7.47444 C 9.7308776,55.800185 8.1674314,54.159044 7.6522448,52.236339 7.1376546,50.315866 7.6865658,46.048996 11.174427,45.114428 11.881566,44.92495 12.767179,44.726623 13.725329,44.531074 11.012897,42.807059 8.8931594,40.480488 7.6593425,37.678599 6.0312517,37.332321 4.8049786,36.797695 4.2737494,36.383144 4.526531,35.758517 5.3212033,34.68238 6.5580321,33.56845 6.2252849,30.525119 6.8987011,27.450125 8.3855567,24.600226 7.4575354,24.910766 6.5914071,25.181817 5.884268,25.371294 2.3964144,26.30586 -0.21231216,22.885418 -0.72715731,20.963989 -1.2421731,19.041922 -0.70875964,16.83893 3.309527,15.762232 c 2.3080127,-0.61843 6.3686349,1.383286 9.406857,3.199147 3.070765,-2.896891 7.123191,-5.201134 11.815765,-6.458506 3.954816,-1.05969 7.886488,-1.247581 11.483557,-0.699012 0.03336,-1.240669 0.376741,-2.4266405 0.03778,-3.6916459 C 35.351132,5.4909829 23.945348,0.56157945 24.70099,-3.639322 c 1.204397,-6.68923 22.427029,8.2221042 23.644232,12.7647656 0.592876,2.2126434 -0.9249,4.6766624 -3.061884,6.2625464 1.388057,0.976377 2.599107,2.120179 3.590542,3.412735 8.177035,-7.35521 16.085568,-0.08332 16.085568,-0.08332 0,0 0.559269,0.471994 0.755071,1.202737"
               style="opacity:0.6;fill:none;stroke:#404040;stroke-width:1.31073689;stroke-miterlimit:4;stroke-opacity:1;stroke-dasharray:none" />
            <path
               style="fill:#dfd8c8;fill-opacity:1;stroke:none"
               id="path2897-8-9-3-3"
               d="M 48.182112,24.61793 C 46.105038,16.866187 35.875567,12.848879 25.378515,15.661555 14.881782,18.474146 8.0311364,27.068058 10.108209,34.819801 12.185197,42.571225 22.415073,46.588767 32.911806,43.776177 43.408858,40.9635 50.2591,32.369354 48.182112,24.61793 m 17.532405,-4.697794 c 0.195631,0.730104 -0.05279,1.418178 -0.05279,1.418178 0,0 -3.212877,10.252543 -13.971916,7.971582 -0.155225,1.181362 -0.451937,2.351409 -0.879452,3.497703 l -0.02725,0.03739 c -0.15184,0.401693 -0.318235,0.800105 -0.501733,1.195923 2.643709,0.305244 5.189895,1.6793 5.782856,3.892262 1.217289,4.542981 -9.706384,28.067892 -14.093951,22.877367 -2.754943,-3.260587 4.657969,-13.232786 3.955783,-15.853381 -0.337248,-1.258626 -1.220206,-2.111897 -1.868996,-3.162949 -2.841717,2.275547 -6.342164,4.080453 -10.298892,5.140655 -4.692575,1.257372 -9.354201,1.288051 -13.462814,0.314185 -1.723248,3.091694 -4.238183,6.856009 -6.546194,7.474439 C 9.7308799,55.800186 8.1674336,54.159045 7.652246,52.23634 7.1376569,50.315867 7.686578,46.048996 11.174428,45.114428 11.881567,44.92495 12.767181,44.726624 13.725332,44.531082 11.012899,42.80706 8.8931627,40.480489 7.6593458,37.6786 6.0312549,37.332322 4.8049807,36.797697 4.2737527,36.383145 4.5265343,35.758518 5.3212054,34.682383 6.5580353,33.568451 6.2252871,30.52512 6.8987044,27.450126 8.3855588,24.600226 7.4575375,24.910766 6.5914104,25.181817 5.8842702,25.371294 2.3964167,26.305861 -0.212309,22.885421 -0.72715458,20.963991 -1.242171,19.041923 -0.708758,16.838931 3.3095302,15.762233 c 2.3080116,-0.61843 6.3686338,1.383286 9.4068578,3.199148 3.070763,-2.896891 7.12319,-5.201134 11.815763,-6.458506 3.954815,-1.059689 7.886488,-1.247581 11.483557,-0.699012 0.03336,-1.24067 0.37674,-2.4266404 0.03778,-3.6916447 C 35.351129,5.4909851 23.945345,0.56158118 24.700989,-3.6393213 25.905384,-10.32855 47.128018,4.582784 48.345221,9.1254458 c 0.592876,2.2126422 -0.924902,4.6766602 -3.061885,6.2625452 1.388058,0.976378 2.599107,2.120179 3.590543,3.412736 8.177033,-7.35521 16.085567,-0.08332 16.085567,-0.08332 0,0 0.559269,0.471993 0.75507,1.202736"
               inkscape:connector-curvature="0" />
          </g>
        </g>
      </g>
    </g>
    <g
       id="g6332"
       transform="matrix(0.78361412,0,0,0.78361412,15.568947,15.317394)">
      <g
         id="g6231" />
    </g>
  </g>
</svg>
